<?xml version="1.0" encoding="UTF-8" standalone="no"?>
<!-- Created with Inkscape (http://www.inkscape.org/) -->

<svg
   xmlns:dc="http://purl.org/dc/elements/1.1/"
   xmlns:cc="http://creativecommons.org/ns#"
   xmlns:rdf="http://www.w3.org/1999/02/22-rdf-syntax-ns#"
   xmlns:svg="http://www.w3.org/2000/svg"
   xmlns="http://www.w3.org/2000/svg"
   xmlns:sodipodi="http://sodipodi.sourceforge.net/DTD/sodipodi-0.dtd"
   xmlns:inkscape="http://www.inkscape.org/namespaces/inkscape"
   id="svg2"
   version="1.1"
   inkscape:version="0.91 r13725"
   width="16.004362"
   height="15.999995"
   viewBox="0 0 16.004362 15.999995"
   sodipodi:docname="instagram.svg">
  <metadata
     id="metadata8">
    <rdf:RDF>
      <cc:Work
         rdf:about="">
        <dc:format>image/svg+xml</dc:format>
        <dc:type
           rdf:resource="http://purl.org/dc/dcmitype/StillImage" />
        <dc:title />
      </cc:Work>
    </rdf:RDF>
  </metadata>
  <defs
     id="defs6" />
  <sodipodi:namedview
     pagecolor="#ffffff"
     bordercolor="#666666"
     borderopacity="1"
     objecttolerance="10"
     gridtolerance="10"
     guidetolerance="10"
     inkscape:pageopacity="0"
     inkscape:pageshadow="2"
     inkscape:window-width="1920"
     inkscape:window-height="1017"
     id="namedview4"
     showgrid="false"
     inkscape:zoom="1.6245048"
     inkscape:cx="223.18829"
     inkscape:cy="166.07651"
     inkscape:window-x="-8"
     inkscape:window-y="-8"
     inkscape:window-maximized="1"
     inkscape:current-layer="svg2"
     fit-margin-top="0"
     fit-margin-left="0"
     fit-margin-right="0"
     fit-margin-bottom="0" />
  <path
     style="fill:#ffffff"
     d="m 3.8525036,15.947565 c -2.1216613,-0.3312 -3.4776833,-1.69834 -3.797678,-3.82884 -0.0731008,-0.48669 -0.0731008,-7.74641 0,-8.23311 0.3222749,-2.14567 1.6851295,-3.50851 3.8308002,-3.83079 0.4866972,-0.0731 7.7464132,-0.0731 8.2331112,0 2.14567,0.32228 3.508525,1.68512 3.8308,3.83079 0.0731,0.4867 0.0731,7.74642 0,8.23311 -0.322275,2.14568 -1.68513,3.50853 -3.8308,3.83081 -0.455848,0.0685 -7.8262706,0.0667 -8.2662334,-0.002 z m 7.0646224,-1.44743 c 2.246583,-0.10319 3.221685,-0.82133 3.502486,-2.57951 0.158573,-0.99287 0.158573,-6.84403 0,-7.8369 -0.230129,-1.44092 -1.058066,-2.26885 -2.498981,-2.49898 -0.992873,-0.15857 -6.8440268,-0.15857 -7.8369001,0 -1.4409139,0.23013 -2.2688505,1.05806 -2.4989802,2.49898 -0.1585728,0.99287 -0.1585728,6.84403 0,7.8369 0.2308322,1.44531 1.0561837,2.26773 2.50987,2.50095 0.6367558,0.10215 5.171783,0.15437 6.8225053,0.0786 z m -3.3290901,-2.34457 c -3.5261114,-0.44778 -5.0136291,-4.61841 -2.5322482,-7.09979 2.6184053,-2.6184 7.1009283,-0.75847 7.1009283,2.9464 0,2.4597 -2.1946623,4.45486 -4.5686801,4.15339 z m 1.0382313,-1.60449 c 2.3573878,-0.59311 2.7122138,-3.81553 0.5387055,-4.89236 -1.7455981,-0.86482 -3.7750919,0.39502 -3.7750919,2.34346 0,1.69655 1.6037845,2.95965 3.2363864,2.5489 z m 3.3355608,-5.87636 c -0.279539,-0.0874 -0.548527,-0.36092 -0.633925,-0.64468 -0.305675,-1.01567 0.914934,-1.76136 1.661354,-1.01494 0.749557,0.74956 -0.01059,1.97744 -1.027429,1.65962 z"
     id="path4138"
     inkscape:connector-curvature="0" />
</svg>
