<?xml version="1.0" encoding="UTF-8" standalone="no"?>
<!-- Created with Inkscape (http://www.inkscape.org/) -->

<svg
   xmlns:dc="http://purl.org/dc/elements/1.1/"
   xmlns:cc="http://creativecommons.org/ns#"
   xmlns:rdf="http://www.w3.org/1999/02/22-rdf-syntax-ns#"
   xmlns:svg="http://www.w3.org/2000/svg"
   xmlns="http://www.w3.org/2000/svg"
   xmlns:sodipodi="http://sodipodi.sourceforge.net/DTD/sodipodi-0.dtd"
   xmlns:inkscape="http://www.inkscape.org/namespaces/inkscape"
   width="14.74688mm"
   height="5.4539165mm"
   viewBox="0 0 14.74688 5.4539165"
   version="1.1"
   id="svg2305"
   inkscape:version="0.92.3 (2405546, 2018-03-11)"
   sodipodi:docname="car-icon-2.svg">
  <defs
     id="defs2299" />
  <sodipodi:namedview
     id="base"
     pagecolor="#ffffff"
     bordercolor="#666666"
     borderopacity="1.0"
     inkscape:pageopacity="0.0"
     inkscape:pageshadow="2"
     inkscape:zoom="0.35"
     inkscape:cx="-159.98261"
     inkscape:cy="-259.99339"
     inkscape:document-units="mm"
     inkscape:current-layer="layer1"
     showgrid="false"
     fit-margin-top="0"
     fit-margin-left="0"
     fit-margin-right="0"
     fit-margin-bottom="0"
     inkscape:window-width="1920"
     inkscape:window-height="1017"
     inkscape:window-x="-8"
     inkscape:window-y="-8"
     inkscape:window-maximized="1" />
  <metadata
     id="metadata2302">
    <rdf:RDF>
      <cc:Work
         rdf:about="">
        <dc:format>image/svg+xml</dc:format>
        <dc:type
           rdf:resource="http://purl.org/dc/dcmitype/StillImage" />
        <dc:title></dc:title>
      </cc:Work>
    </rdf:RDF>
  </metadata>
  <g
     inkscape:label="Layer 1"
     inkscape:groupmode="layer"
     id="layer1"
     transform="translate(-25.319806,-74.589498)">
    <path
       style="fill:#ffffff;stroke-width:0.26458332"
       inkscape:connector-curvature="0"
       id="path1475"
       d="m 39.983059,77.820913 c -0.10584,-0.740833 -0.79375,-1.164166 -0.79375,-1.164166 -0.50271,-0.211667 -1.69334,-0.211667 -2.77813,-0.370417 -0.23812,-0.02646 -0.44979,-0.132292 -0.60854,-0.264583 l -0.87313,-0.555625 c -0.635,-0.502709 -1.5875,-0.767292 -2.4077,-0.767292 0,0 -2.93688,-0.132292 -3.57188,-0.105833 -1.85208,0.132291 -2.61937,0.926041 -3.20146,1.42875 -0.26458,0.211666 -0.18521,0.714375 -0.34396,1.084791 -0.13229,0.343959 -0.10583,0.714375 0.0529,1.031875 l -0.0529,0.396875 c -0.0264,0.15875 0.0794,0.291042 0.21167,0.291042 l 0.47625,0.02646 h 0.42333 c 0.26459,0 0.50271,0.15875 0.58209,0.396875 0.18521,0.47625 0.635,0.79375 1.13771,0.79375 0.52916,0 0.9525,-0.3175 1.1377,-0.767291 0.10584,-0.238125 0.34396,-0.396875 0.58209,-0.396875 l 5.02708,0.02646 c 0.23813,0 0.47625,0.132292 0.58208,0.370417 0.18521,0.449791 0.635,0.740833 1.13771,0.740833 0.50271,0 0.92604,-0.291042 1.13771,-0.740833 0.10583,-0.238125 0.34396,-0.370417 0.58208,-0.370417 h 0.4498 0.58208 c 0.52917,0 0.58208,-0.291042 0.60854,-0.767292 0.0265,-0.105833 -0.0794,-0.3175 -0.0794,-0.3175 z m -11.7475,1.878542 c -0.47625,0 -0.87313,-0.396875 -0.87313,-0.873125 0,-0.47625 0.39688,-0.873125 0.87313,-0.873125 0.47625,0 0.87312,0.396875 0.87312,0.873125 0,0.47625 -0.39687,0.873125 -0.87312,0.873125 z m 6.93208,-3.254375 -6.56167,-0.07937 c -0.26458,0 -0.76729,-0.370417 -1.13771,-0.635 -0.1852,-0.132292 -0.13229,-0.423333 0.10584,-0.47625 0.66146,-0.15875 1.48166,-0.423333 1.79916,-0.423333 0,0 2.46063,0.105833 3.28084,0.132291 0.55562,0.02646 1.34937,0.264584 1.77271,0.635 l 0.79375,0.687917 c 0.0794,0.05292 0.0529,0.15875 -0.0529,0.15875 z m 1.53458,3.254375 c -0.47625,0 -0.87312,-0.396875 -0.87312,-0.873125 0,-0.47625 0.39687,-0.873125 0.87312,-0.873125 0.47625,0 0.87313,0.396875 0.87313,0.873125 0,0.47625 -0.39688,0.873125 -0.87313,0.873125 z"
       class="st1" />
  </g>
</svg>
