<?xml version="1.0" encoding="UTF-8" standalone="no"?>
<!-- Created with Inkscape (http://www.inkscape.org/) -->

<svg
   xmlns:dc="http://purl.org/dc/elements/1.1/"
   xmlns:cc="http://creativecommons.org/ns#"
   xmlns:rdf="http://www.w3.org/1999/02/22-rdf-syntax-ns#"
   xmlns:svg="http://www.w3.org/2000/svg"
   xmlns="http://www.w3.org/2000/svg"
   xmlns:sodipodi="http://sodipodi.sourceforge.net/DTD/sodipodi-0.dtd"
   xmlns:inkscape="http://www.inkscape.org/namespaces/inkscape"
   width="24.6134mm"
   height="4.8948998mm"
   viewBox="0 0 24.6134 4.8948998"
   version="1.1"
   id="svg2305"
   inkscape:version="0.92.3 (2405546, 2018-03-11)"
   sodipodi:docname="car-icon-3.svg">
  <defs
     id="defs2299" />
  <sodipodi:namedview
     id="base"
     pagecolor="#ffffff"
     bordercolor="#666666"
     borderopacity="1.0"
     inkscape:pageopacity="0.0"
     inkscape:pageshadow="2"
     inkscape:zoom="0.35"
     inkscape:cx="220.10871"
     inkscape:cy="-255.32849"
     inkscape:document-units="mm"
     inkscape:current-layer="layer1"
     showgrid="false"
     fit-margin-top="0"
     fit-margin-left="0"
     fit-margin-right="0"
     fit-margin-bottom="0"
     inkscape:window-width="1920"
     inkscape:window-height="1017"
     inkscape:window-x="-8"
     inkscape:window-y="-8"
     inkscape:window-maximized="1" />
  <metadata
     id="metadata2302">
    <rdf:RDF>
      <cc:Work
         rdf:about="">
        <dc:format>image/svg+xml</dc:format>
        <dc:type
           rdf:resource="http://purl.org/dc/dcmitype/StillImage" />
        <dc:title></dc:title>
      </cc:Work>
    </rdf:RDF>
  </metadata>
  <g
     inkscape:label="Layer 1"
     inkscape:groupmode="layer"
     id="layer1"
     transform="translate(75.246023,-76.382769)">
    <path
       style="fill:#ffffff;stroke-width:0.26458332"
       inkscape:connector-curvature="0"
       id="path1469"
       d="m -50.738448,79.213809 c -0.07937,-0.68792 -0.740833,-0.82021 -0.740833,-0.82021 -0.449792,-0.1852 -1.852084,-0.1852 -2.831042,-0.34395 0,0 -1.455208,-0.84667 -1.931458,-1.13771 -0.635,-0.37042 -1.27,-0.52917 -2.010834,-0.52917 0,0 -11.90625,0.0265 -12.514791,0.0794 -1.137709,0.1323 -1.905,1.03188 -2.989792,1.32292 -0.238125,0.0794 -0.608542,0.23813 -0.608542,0.23813 -0.343958,0.0265 -0.529166,0.37041 -0.714375,0.71437 -0.15875,0.29104 -0.238125,0.47625 -0.07938,0.76729 l -0.05292,0.37042 c -0.02646,0.13229 0.07937,0.26458 0.211666,0.26458 l 0.449792,0.0265 h 0.396875 c 0.238125,0 0.449792,0.13229 0.555625,0.37042 0.15875,0.42333 0.582083,0.74083 1.058333,0.74083 0.47625,0 0.899584,-0.29104 1.058334,-0.71437 0.07937,-0.21167 0.3175,-0.37042 0.555625,-0.37042 l 15.5575,0.0265 c 0.238125,0 0.449791,0.13229 0.529166,0.34396 0.185209,0.42333 0.582084,0.71437 1.058334,0.71437 0.47625,0 0.873125,-0.29104 1.058333,-0.68792 0.105833,-0.21166 0.3175,-0.34395 0.555625,-0.34395 h 0.423333 0.555625 c 0.47625,0 0.529167,-0.26459 0.555625,-0.71438 -0.02646,-0.15875 -0.105833,-0.3175 -0.105833,-0.3175 z m -21.828125,1.71979 c -0.449792,0 -0.79375,-0.37041 -0.79375,-0.79375 0,-0.44979 0.370417,-0.79375 0.79375,-0.79375 0.449792,0 0.79375,0.37042 0.79375,0.79375 0.02646,0.44979 -0.343958,0.79375 -0.79375,0.79375 z m 17.145,-2.8575 h -15.107708 c -0.79375,0 -1.455209,-0.39687 -1.455209,-0.39687 -0.05292,-0.0265 -0.05292,-0.13229 0,-0.15875 l 0.873125,-0.55563 c 0.370417,-0.23812 0.79375,-0.34396 1.217084,-0.34396 h 11.773958 c 0.529167,0 0.978958,0.18521 1.561042,0.55563 0.291041,0.18521 1.164166,0.74083 1.164166,0.74083 0.07937,0.0794 0.05292,0.15875 -0.02646,0.15875 z m 1.640417,2.8575 c -0.449792,0 -0.79375,-0.37041 -0.79375,-0.79375 0,-0.44979 0.370416,-0.79375 0.79375,-0.79375 0.423333,0 0.79375,0.37042 0.79375,0.79375 0,0.44979 -0.370417,0.79375 -0.79375,0.79375 z"
       class="st1" />
  </g>
</svg>
