<?xml version="1.0" encoding="UTF-8" standalone="no"?>
<!-- Created with Inkscape (http://www.inkscape.org/) -->

<svg
   xmlns:dc="http://purl.org/dc/elements/1.1/"
   xmlns:cc="http://creativecommons.org/ns#"
   xmlns:rdf="http://www.w3.org/1999/02/22-rdf-syntax-ns#"
   xmlns:svg="http://www.w3.org/2000/svg"
   xmlns="http://www.w3.org/2000/svg"
   xmlns:sodipodi="http://sodipodi.sourceforge.net/DTD/sodipodi-0.dtd"
   xmlns:inkscape="http://www.inkscape.org/namespaces/inkscape"
   width="74.644424mm"
   height="72.776611mm"
   viewBox="0 0 264.48812 257.86988"
   id="svg4446"
   version="1.1"
   inkscape:version="0.91 r13725"
   sodipodi:docname="logo.svg">
  <defs
     id="defs4448">
    <clipPath
       clipPathUnits="userSpaceOnUse"
       id="clipPath28">
      <path
         d="m 0,0 1224,0 0,792 L 0,792 0,0 Z"
         id="path30"
         inkscape:connector-curvature="0" />
    </clipPath>
  </defs>
  <sodipodi:namedview
     id="base"
     pagecolor="#ffffff"
     bordercolor="#666666"
     borderopacity="1.0"
     inkscape:pageopacity="0.0"
     inkscape:pageshadow="2"
     inkscape:zoom="0.49497475"
     inkscape:cx="-371.34125"
     inkscape:cy="-227.80072"
     inkscape:document-units="px"
     inkscape:current-layer="g26"
     showgrid="false"
     inkscape:window-width="1920"
     inkscape:window-height="1017"
     inkscape:window-x="1912"
     inkscape:window-y="-8"
     inkscape:window-maximized="1"
     fit-margin-top="0"
     fit-margin-left="0"
     fit-margin-right="0"
     fit-margin-bottom="0" />
  <metadata
     id="metadata4451">
    <rdf:RDF>
      <cc:Work
         rdf:about="">
        <dc:format>image/svg+xml</dc:format>
        <dc:type
           rdf:resource="http://purl.org/dc/dcmitype/StillImage" />
        <dc:title></dc:title>
      </cc:Work>
    </rdf:RDF>
  </metadata>
  <g
     inkscape:label="Layer 1"
     inkscape:groupmode="layer"
     id="layer1"
     transform="translate(-61.71033,-75.1379)">
    <g
       transform="matrix(1.25,0,0,-1.25,-188.54517,802.3379)"
       id="g24">
      <g
         id="g26"
         clip-path="url(#clipPath28)">
        <g
           id="g32"
           transform="translate(222.9934,401.5915)"
           style="fill:#ffffff">
          <path
             d="m 0,0 c 0,-6.58 -5.225,-10.838 -13.644,-10.838 -1.5,0 -3.144,0.145 -4.21,0.29 l 0,-14.999 -4.935,0 0,35.223 9.145,0 C -4.596,9.676 0,6.193 0,0 m -5.225,-0.581 c 0,5.564 -2.807,9.483 -9.144,9.483 l -3.485,0 0,-18.627 c 0.872,-0.194 1.985,-0.339 3.388,-0.339 6.145,0 9.241,3.58 9.241,9.483"
             style="fill:#ffffff;fill-opacity:1;fill-rule:nonzero;stroke:none"
             id="path34"
             inkscape:connector-curvature="0" />
        </g>
        <g
           id="g36"
           transform="translate(252.4599,379.2869)"
           style="fill:#ffffff">
          <path
             d="m 0,0 -0.919,-3.242 -20.854,0 0,35.223 20.273,0 0.581,-3.048 -0.097,0 c -4.451,1.499 -8.951,2.177 -13.16,2.177 l -2.662,0 0,-15.58 2.227,0 c 5.225,0 8.66,0.339 10.16,0.968 l 0.096,0 0,-2.999 -0.096,0 c -1.5,0.629 -4.935,1.161 -10.16,1.161 l -2.227,0 0,-17.031 2.807,0 c 4.161,0 9.29,0.629 13.934,2.371 L 0,0 Z"
             style="fill:#ffffff;fill-opacity:1;fill-rule:nonzero;stroke:none"
             id="path38"
             inkscape:connector-curvature="0" />
        </g>
        <g
           id="g40"
           transform="translate(289.2326,392.0111)"
           style="fill:#ffffff">
          <path
             d="m 0,0 0,-12.144 c -3.097,-2.274 -7.499,-4.403 -13.741,-4.403 -11.273,0 -18.821,6.628 -18.821,17.95 0,11.225 7.984,18.434 18.531,18.434 5.661,0 10.402,-2.419 13.257,-5.66 l -2.419,-2.178 c -2.42,4.065 -6.241,7.064 -11.273,7.064 -7.742,0 -12.677,-6.822 -12.677,-17.321 0,-10.257 5.42,-17.418 13.644,-17.418 3.532,0 6.822,1.21 8.951,2.903 l 0,11.902 -8.08,0 L -13.16,0 0,0 Z"
             style="fill:#ffffff;fill-opacity:1;fill-rule:nonzero;stroke:none"
             id="path42"
             inkscape:connector-curvature="0" />
        </g>
        <g
           id="g44"
           transform="translate(312.2654,387.6087)"
           style="fill:#ffffff">
          <path
             d="m 0,0 -13.741,0 c -2.128,-5.661 -2.709,-8.709 -2.855,-11.564 l -3.338,0 c 2.323,4.838 4.162,9.338 6.678,15.434 l 8.418,20.563 0.194,0 14.659,-35.997 -5.37,0 L 0,0 Z m -0.339,0.871 -6.531,16.16 -5.467,-13.499 -1.065,-2.661 13.063,0 z"
             style="fill:#ffffff;fill-opacity:1;fill-rule:nonzero;stroke:none"
             id="path46"
             inkscape:connector-curvature="0" />
        </g>
        <g
           id="g48"
           transform="translate(324.8956,378.0289)"
           style="fill:#ffffff">
          <path
             d="m 0,0 0.871,3.048 c 2.322,-2.855 6.919,-4.839 10.838,-4.839 4.693,0 7.886,2.904 7.886,6.871 0,4.645 -4.161,6.725 -7.742,8.37 l -2.419,1.065 c -3.821,1.741 -8.901,4.257 -8.901,10.015 0,5.322 4.402,9.289 11.128,9.289 3.966,0 7.885,-1.403 9.87,-2.564 l -0.775,-2.71 c -2.129,2.226 -5.612,4.5 -9.628,4.5 -4.499,0 -7.064,-2.806 -7.064,-6.193 0,-4.161 3.677,-5.999 7.548,-7.789 l 2.419,-1.113 c 4.354,-2.032 9.047,-4.354 9.047,-10.354 0,-6.048 -4.982,-10.16 -11.805,-10.16 C 7.064,-2.564 2.177,-1.113 0,0"
             style="fill:#ffffff;fill-opacity:1;fill-rule:nonzero;stroke:none"
             id="path50"
             inkscape:connector-curvature="0" />
        </g>
        <g
           id="g52"
           transform="translate(355.5243,388.1408)"
           style="fill:#ffffff">
          <path
             d="m 0,0 0,23.127 4.935,0 0,-23.03 c 0,-7.548 3.386,-11.322 9.628,-11.322 5.999,0 9.676,3.629 9.676,11.08 l 0,7.886 c 0,6.774 -0.289,11.516 -0.967,15.386 l 2.903,0 C 25.547,19.257 25.208,14.515 25.208,7.741 l 0,-7.644 c 0,-8.225 -3.92,-12.773 -12.435,-12.773 C 4.258,-12.676 0,-8.128 0,0"
             style="fill:#ffffff;fill-opacity:1;fill-rule:nonzero;stroke:none"
             id="path54"
             inkscape:connector-curvature="0" />
        </g>
        <g
           id="g56"
           transform="translate(388.7169,378.0289)"
           style="fill:#ffffff">
          <path
             d="m 0,0 0.871,3.048 c 2.322,-2.855 6.919,-4.839 10.838,-4.839 4.693,0 7.886,2.904 7.886,6.871 0,4.645 -4.16,6.725 -7.742,8.37 l -2.419,1.065 c -3.822,1.741 -8.901,4.257 -8.901,10.015 0,5.322 4.402,9.289 11.128,9.289 3.966,0 7.885,-1.403 9.87,-2.564 l -0.775,-2.71 c -2.129,2.226 -5.612,4.5 -9.628,4.5 -4.499,0 -7.064,-2.806 -7.064,-6.193 0,-4.161 3.677,-5.999 7.548,-7.789 l 2.419,-1.113 c 4.354,-2.032 9.047,-4.354 9.047,-10.354 0,-6.048 -4.983,-10.16 -11.805,-10.16 C 7.064,-2.564 2.177,-1.113 0,0"
             style="fill:#ffffff;fill-opacity:1;fill-rule:nonzero;stroke:none"
             id="path58"
             inkscape:connector-curvature="0" />
        </g>
        <g
           id="g60"
           transform="translate(367.7272,514.8996)">
          <path
             d="m 0,0 c -0.069,3.188 -2.604,5.762 -5.775,5.898 -0.087,0.004 -0.435,0.004 -0.523,0 l -14.146,0 0,12.659 c -0.002,4.121 -3.356,7.473 -7.476,7.473 l -0.593,0 0,-28.2 18.258,0 -18.363,-24.246 6.385,-4.932 20.521,27 c 0.341,0.349 0.636,0.741 0.885,1.164 0.505,0.861 0.804,1.856 0.827,2.921 0.001,0.044 0.007,0.087 0.007,0.131 C 0.007,-0.087 0.001,-0.044 0,0"
             style="fill:#61e3f7;fill-opacity:1;fill-rule:nonzero;stroke:none"
             id="path62"
             inkscape:connector-curvature="0" />
        </g>
        <g
           id="g64"
           transform="translate(276.6302,512.7296)">
          <path
             d="m 0,0 c -9.354,0 -17.335,-6.998 -18.562,-16.281 -0.124,-0.928 -0.181,-1.709 -0.181,-2.459 l 0,-9.009 0,-11.028 0,-0.623 c 0,-3.369 -2.074,-6.25 -5.014,-7.445 l 5.014,0 0.593,0 c 4.122,0 7.475,3.298 7.475,7.42 l 0,20.685 c 0.002,5.884 4.791,10.672 10.675,10.672 l 0.593,0 L 0.593,0 0,0 Z"
             style="fill:#61e3f7;fill-opacity:1;fill-rule:nonzero;stroke:none"
             id="path66"
             inkscape:connector-curvature="0" />
        </g>
        <g
           id="g68"
           transform="translate(292.9161,554.6584)">
          <path
             d="m 0,0 -54.451,0 -24.205,0 c 0,0 0.696,-1.449 2.414,-3.117 2.338,-2.272 6.57,-4.951 13.546,-4.951 l 8.245,0 50.487,0 25.659,-33.224 6.208,-8.037 c 1.06,3.4 1.73,6.971 1.963,10.659 L 22.104,-28.62 0,0 Z"
             style="fill:#61e3f7;fill-opacity:1;fill-rule:nonzero;stroke:none"
             id="path70"
             inkscape:connector-curvature="0" />
        </g>
        <g
           id="g72"
           transform="translate(348.1288,581.76)">
          <path
             d="m 0,0 -0.433,-0.21 c -2.45,-1.18 -4.032,-3.507 -4.226,-6.16 l -0.003,-0.139 -0.435,-0.098 c -12.741,-2.747 -23.049,-12.346 -26.699,-24.838 l -17.38,22.495 -74.544,0 -24.204,0 c 0,0 0.696,-1.448 2.413,-3.117 2.338,-2.271 6.57,-4.951 13.547,-4.951 l 8.244,0 70.582,0 20.029,-25.92 7.857,-10.169 0.103,-0.134 0,11.818 c 0,14.491 11.267,26.495 25.706,27.464 l 19.099,-24.829 6.385,4.933 L 0,0 Z"
             style="fill:#61e3f7;fill-opacity:1;fill-rule:nonzero;stroke:none"
             id="path74"
             inkscape:connector-curvature="0" />
        </g>
        <g
           id="g76"
           transform="translate(306.9218,484.2516)">
          <path
             d="m 0,0 c 1.891,1.623 3.647,3.398 5.25,5.306 1.814,2.157 3.431,4.482 4.826,6.95 l -5.318,6.883 -25.586,33.114 -33.572,0 -24.205,0 c 0,0 0.697,-1.449 2.415,-3.118 2.338,-2.271 6.57,-4.95 13.545,-4.95 l 8.245,0 29.609,0 25.1,-32.484 C -6.219,3.183 -16.281,-2.49 -27.669,-3.095 c -0.02,0.005 -1.067,0.004 -1.067,0.004 l -0.96,0.01 0,-7.927 c 0.011,0 0.022,0 0.033,0 l 0,-0.134 25.274,-32.644 10.203,0 -26.171,33.74 c 1.461,0.305 2.897,0.68 4.303,1.121 C -10.084,-7.052 -4.639,-3.982 0,0"
             style="fill:#61e3f7;fill-opacity:1;fill-rule:nonzero;stroke:none"
             id="path78"
             inkscape:connector-curvature="0" />
        </g>
      </g>
    </g>
  </g>
</svg>
