<?xml version="1.0" encoding="UTF-8" standalone="no"?>
<!-- Created with Inkscape (http://www.inkscape.org/) -->

<svg
   xmlns:dc="http://purl.org/dc/elements/1.1/"
   xmlns:cc="http://creativecommons.org/ns#"
   xmlns:rdf="http://www.w3.org/1999/02/22-rdf-syntax-ns#"
   xmlns:svg="http://www.w3.org/2000/svg"
   xmlns="http://www.w3.org/2000/svg"
   xmlns:sodipodi="http://sodipodi.sourceforge.net/DTD/sodipodi-0.dtd"
   xmlns:inkscape="http://www.inkscape.org/namespaces/inkscape"
   width="57.535301mm"
   height="46.730179mm"
   viewBox="0 0 57.535301 46.730179"
   version="1.1"
   id="svg1948"
   inkscape:version="0.92.3 (2405546, 2018-03-11)"
   sodipodi:docname="white-logo.svg">
  <defs
     id="defs1942" />
  <sodipodi:namedview
     id="base"
     pagecolor="#ffffff"
     bordercolor="#666666"
     borderopacity="1.0"
     inkscape:pageopacity="0.0"
     inkscape:pageshadow="2"
     inkscape:zoom="0.35"
     inkscape:cx="-941.86301"
     inkscape:cy="68.699919"
     inkscape:document-units="mm"
     inkscape:current-layer="layer1"
     showgrid="false"
     inkscape:window-width="1920"
     inkscape:window-height="1017"
     inkscape:window-x="-8"
     inkscape:window-y="-8"
     inkscape:window-maximized="1"
     fit-margin-top="0"
     fit-margin-left="0"
     fit-margin-right="0"
     fit-margin-bottom="0" />
  <metadata
     id="metadata1945">
    <rdf:RDF>
      <cc:Work
         rdf:about="">
        <dc:format>image/svg+xml</dc:format>
        <dc:type
           rdf:resource="http://purl.org/dc/dcmitype/StillImage" />
        <dc:title></dc:title>
      </cc:Work>
    </rdf:RDF>
  </metadata>
  <g
     inkscape:label="Layer 1"
     inkscape:groupmode="layer"
     id="layer1"
     transform="translate(-70.047388,-120.28001)">
    <g
       id="g60"
       transform="matrix(0.33072917,0,0,-0.33072917,125.45193,142.39269)"
       style="fill:#ffffff;fill-opacity:1">
      <path
         d="m 0,0 c -0.069,3.188 -2.604,5.762 -5.775,5.898 -0.087,0.004 -0.435,0.004 -0.523,0 h -14.146 v 12.659 c -0.002,4.121 -3.356,7.473 -7.476,7.473 h -0.593 v -28.2 h 18.258 l -18.363,-24.246 6.385,-4.932 20.521,27 c 0.341,0.349 0.636,0.741 0.885,1.164 0.505,0.861 0.804,1.856 0.827,2.921 0.001,0.044 0.007,0.087 0.007,0.131 C 0.007,-0.087 0.001,-0.044 0,0"
         style="fill:#ffffff;fill-opacity:1;fill-rule:nonzero;stroke:none"
         id="path62"
         inkscape:connector-curvature="0" />
    </g>
    <g
       id="g64"
       transform="matrix(0.33072917,0,0,-0.33072917,95.323496,143.11038)"
       style="fill:#ffffff;fill-opacity:1">
      <path
         d="m 0,0 c -9.354,0 -17.335,-6.998 -18.562,-16.281 -0.124,-0.928 -0.181,-1.709 -0.181,-2.459 v -9.009 -11.028 -0.623 c 0,-3.369 -2.074,-6.25 -5.014,-7.445 h 5.014 0.593 c 4.122,0 7.475,3.298 7.475,7.42 V -18.74 C -10.673,-12.856 -5.884,-8.068 0,-8.068 H 0.593 V 0 Z"
         style="fill:#ffffff;fill-opacity:1;fill-rule:nonzero;stroke:none"
         id="path66"
         inkscape:connector-curvature="0" />
    </g>
    <g
       id="g68"
       transform="matrix(0.33072917,0,0,-0.33072917,100.70973,129.2433)"
       style="fill:#ffffff;fill-opacity:1">
      <path
         d="m 0,0 h -54.451 -24.205 c 0,0 0.696,-1.449 2.414,-3.117 2.338,-2.272 6.57,-4.951 13.546,-4.951 h 8.245 50.487 l 25.659,-33.224 6.208,-8.037 c 1.06,3.4 1.73,6.971 1.963,10.659 l -7.762,10.05 z"
         style="fill:#ffffff;fill-opacity:1;fill-rule:nonzero;stroke:none"
         id="path70"
         inkscape:connector-curvature="0" />
    </g>
    <g
       id="g72"
       transform="matrix(0.33072917,0,0,-0.33072917,118.97017,120.28001)"
       style="fill:#ffffff;fill-opacity:1">
      <path
         d="m 0,0 -0.433,-0.21 c -2.45,-1.18 -4.032,-3.507 -4.226,-6.16 l -0.003,-0.139 -0.435,-0.098 c -12.741,-2.747 -23.049,-12.346 -26.699,-24.838 l -17.38,22.495 h -74.544 -24.204 c 0,0 0.696,-1.448 2.413,-3.117 2.338,-2.271 6.57,-4.951 13.547,-4.951 h 8.244 70.582 l 20.029,-25.92 7.857,-10.169 0.103,-0.134 v 11.818 c 0,14.491 11.267,26.495 25.706,27.464 l 19.099,-24.829 6.385,4.933 z"
         style="fill:#ffffff;fill-opacity:1;fill-rule:nonzero;stroke:none"
         id="path74"
         inkscape:connector-curvature="0" />
    </g>
    <g
       id="g76"
       transform="matrix(0.33072917,0,0,-0.33072917,105.34181,152.52888)"
       style="fill:#ffffff;fill-opacity:1">
      <path
         d="m 0,0 c 1.891,1.623 3.647,3.398 5.25,5.306 1.814,2.157 3.431,4.482 4.826,6.95 L 4.758,19.139 -20.828,52.253 H -54.4 -78.605 c 0,0 0.697,-1.449 2.415,-3.118 2.338,-2.271 6.57,-4.95 13.545,-4.95 h 8.245 29.609 L 0.309,11.701 C -6.219,3.183 -16.281,-2.49 -27.669,-3.095 c -0.02,0.005 -1.067,0.004 -1.067,0.004 l -0.96,0.01 v -7.927 c 0.011,0 0.022,0 0.033,0 v -0.134 L -4.389,-43.786 H 5.814 l -26.171,33.74 c 1.461,0.305 2.897,0.68 4.303,1.121 C -10.084,-7.052 -4.639,-3.982 0,0"
         style="fill:#ffffff;fill-opacity:1;fill-rule:nonzero;stroke:none"
         id="path78"
         inkscape:connector-curvature="0" />
    </g>
  </g>
</svg>
