<?xml version="1.0" encoding="UTF-8" standalone="no"?>
<!-- Created with Inkscape (http://www.inkscape.org/) -->

<svg
   xmlns:dc="http://purl.org/dc/elements/1.1/"
   xmlns:cc="http://creativecommons.org/ns#"
   xmlns:rdf="http://www.w3.org/1999/02/22-rdf-syntax-ns#"
   xmlns:svg="http://www.w3.org/2000/svg"
   xmlns="http://www.w3.org/2000/svg"
   xmlns:sodipodi="http://sodipodi.sourceforge.net/DTD/sodipodi-0.dtd"
   xmlns:inkscape="http://www.inkscape.org/namespaces/inkscape"
   width="14.744449mm"
   height="5.1330199mm"
   viewBox="0 0 14.744449 5.1330199"
   version="1.1"
   id="svg2305"
   inkscape:version="0.92.3 (2405546, 2018-03-11)"
   sodipodi:docname="car-icon-1.svg">
  <defs
     id="defs2299" />
  <sodipodi:namedview
     id="base"
     pagecolor="#ffffff"
     bordercolor="#666666"
     borderopacity="1.0"
     inkscape:pageopacity="0.0"
     inkscape:pageshadow="2"
     inkscape:zoom="0.35"
     inkscape:cx="-349.26194"
     inkscape:cy="-36.007266"
     inkscape:document-units="mm"
     inkscape:current-layer="layer1"
     showgrid="false"
     fit-margin-top="0"
     fit-margin-left="0"
     fit-margin-right="0"
     fit-margin-bottom="0"
     inkscape:window-width="1920"
     inkscape:window-height="1017"
     inkscape:window-x="-8"
     inkscape:window-y="-8"
     inkscape:window-maximized="1" />
  <metadata
     id="metadata2302">
    <rdf:RDF>
      <cc:Work
         rdf:about="">
        <dc:format>image/svg+xml</dc:format>
        <dc:type
           rdf:resource="http://purl.org/dc/dcmitype/StillImage" />
        <dc:title></dc:title>
      </cc:Work>
    </rdf:RDF>
  </metadata>
  <g
     inkscape:label="Layer 1"
     inkscape:groupmode="layer"
     id="layer1"
     transform="translate(-75.399962,-134.17339)">
    <path
       style="fill:#ffffff;stroke-width:0.26458332"
       inkscape:connector-curvature="0"
       id="path1471"
       d="m 90.038577,137.26901 c -0.07937,-0.68792 -0.740834,-1.08479 -0.740834,-1.08479 -0.449791,-0.18521 -1.5875,-0.18521 -2.566458,-0.34396 -0.211667,-0.0265 -0.396875,-0.13229 -0.582083,-0.26458 l -0.899584,-0.68792 c -0.582083,-0.44979 -1.402291,-0.71437 -2.143125,-0.71437 0,0 -2.619375,0.0265 -3.227916,0.0794 -1.137709,0.13229 -1.905,1.03187 -2.989792,1.32291 -0.238125,0.0794 -0.608542,0.23813 -0.608542,0.23813 -0.343958,0.0265 -0.529166,0.37041 -0.714375,0.71437 -0.15875,0.29104 -0.238125,0.71438 -0.07937,1.00542 l -0.05292,0.37042 c -0.02646,0.13229 0.07938,0.26458 0.211666,0.26458 l 0.449792,0.0265 h 0.396875 c 0.238125,0 0.449792,0.13229 0.555625,0.37042 0.15875,0.42333 0.582083,0.74083 1.058333,0.74083 0.47625,0 0.899584,-0.29104 1.058334,-0.71438 0.07937,-0.21166 0.3175,-0.37041 0.555625,-0.37041 l 5.688541,0.0265 c 0.238125,0 0.449792,0.13229 0.529167,0.34396 0.185208,0.42333 0.582083,0.71437 1.058333,0.71437 0.47625,0 0.873125,-0.29104 1.058334,-0.68792 0.105833,-0.21166 0.3175,-0.34395 0.555625,-0.34395 h 0.423333 0.555625 c 0.47625,0 0.529167,-0.26459 0.555625,-0.71438 0,-0.10583 -0.105833,-0.29104 -0.105833,-0.29104 z m -11.932709,1.74625 c -0.449791,0 -0.79375,-0.37042 -0.79375,-0.79375 0,-0.42333 0.370417,-0.79375 0.79375,-0.79375 0.449792,0 0.79375,0.37042 0.79375,0.79375 0,0.42333 -0.370416,0.79375 -0.79375,0.79375 z m 7.434792,-3.09562 h -5.3975 c -0.79375,0 -1.455208,-0.39688 -1.455208,-0.39688 -0.05292,-0.0265 -0.05292,-0.13229 0,-0.15875 l 0.873125,-0.55562 c 0.370416,-0.23813 0.79375,-0.34396 1.217083,-0.34396 h 2.487083 c 0.529167,0 1.11125,0.18521 1.508125,0.55562 l 0.820209,0.74084 c 0.05292,0.0529 0,0.15875 -0.05292,0.15875 z m 1.455208,3.09562 c -0.449791,0 -0.79375,-0.37042 -0.79375,-0.79375 0,-0.42333 0.370417,-0.79375 0.79375,-0.79375 0.449792,0 0.79375,0.37042 0.79375,0.79375 0,0.42333 -0.343958,0.79375 -0.79375,0.79375 z"
       class="st1" />
  </g>
</svg>
