<?xml version="1.0" encoding="UTF-8" standalone="no"?>
<!-- Created with Inkscape (http://www.inkscape.org/) -->

<svg
   xmlns:dc="http://purl.org/dc/elements/1.1/"
   xmlns:cc="http://creativecommons.org/ns#"
   xmlns:rdf="http://www.w3.org/1999/02/22-rdf-syntax-ns#"
   xmlns:svg="http://www.w3.org/2000/svg"
   xmlns="http://www.w3.org/2000/svg"
   xmlns:sodipodi="http://sodipodi.sourceforge.net/DTD/sodipodi-0.dtd"
   xmlns:inkscape="http://www.inkscape.org/namespaces/inkscape"
   width="15.511745mm"
   height="6.1912789mm"
   viewBox="0 0 15.511746 6.1912789"
   version="1.1"
   id="svg2305"
   inkscape:version="0.92.3 (2405546, 2018-03-11)"
   sodipodi:docname="car-icon-5.svg">
  <defs
     id="defs2299" />
  <sodipodi:namedview
     id="base"
     pagecolor="#ffffff"
     bordercolor="#666666"
     borderopacity="1.0"
     inkscape:pageopacity="0.0"
     inkscape:pageshadow="2"
     inkscape:zoom="0.35"
     inkscape:cx="12.351636"
     inkscape:cy="-181.74963"
     inkscape:document-units="mm"
     inkscape:current-layer="layer1"
     showgrid="false"
     fit-margin-top="0"
     fit-margin-left="0"
     fit-margin-right="0"
     fit-margin-bottom="0"
     inkscape:window-width="1920"
     inkscape:window-height="1017"
     inkscape:window-x="-8"
     inkscape:window-y="-8"
     inkscape:window-maximized="1" />
  <metadata
     id="metadata2302">
    <rdf:RDF>
      <cc:Work
         rdf:about="">
        <dc:format>image/svg+xml</dc:format>
        <dc:type
           rdf:resource="http://purl.org/dc/dcmitype/StillImage" />
        <dc:title></dc:title>
      </cc:Work>
    </rdf:RDF>
  </metadata>
  <g
     inkscape:label="Layer 1"
     inkscape:groupmode="layer"
     id="layer1"
     transform="translate(20.276959,-94.554131)">
    <path
       style="fill:#ffffff;stroke-width:0.26458332"
       inkscape:connector-curvature="0"
       id="path1477"
       d="m -4.765214,96.961841 c 0,-0.60854 -0.74083,-2.06375 -0.74083,-2.06375 -0.15875,-0.3175 -0.58209,-0.34396 -1.24354,-0.34396 h -12.85875 c -0.68792,0.10583 -0.39688,2.75167 -0.50271,2.83104 -0.15875,0.0794 -0.23813,1.16417 -0.0794,1.21708 l -0.0529,0.4498 c -0.0265,0.15875 0.0794,0.3175 0.23812,0.3175 l 0.52917,0.0265 h 0.23812 c 0.29104,0 0.55563,0.18521 0.66146,0.4498 0.18521,0.529159 0.68792,0.873119 1.27,0.873119 0.58208,0 1.05833,-0.37042 1.27,-0.873119 0.10583,-0.26459 0.37042,-0.42334 0.66146,-0.42334 l 5.90021,0.0529 c 0.29104,0 0.52916,0.15875 0.635,0.42333 0.21166,0.502709 0.68791,0.846669 1.27,0.846669 0.55562,0 1.03187,-0.34396 1.24354,-0.820209 0.10583,-0.26458 0.37042,-0.42333 0.66146,-0.39687 h 0.23812 c 0.58209,0 0.635,-0.3175 0.66146,-0.84667 0,-0.23813 0,-1.71979 0,-1.71979 z m -7.72583,-2.09021 c 0.66146,0 1.32291,0 1.95791,0 l 0.0794,1.71979 h -1.95792 z m -0.3175,1.74625 h -1.95792 l -0.0794,-1.71979 c 0.635,0 1.29645,0 1.95791,0 z m -6.37646,0 c -0.0794,0 -0.21167,0 -0.21167,-0.3175 0,-1.03188 0.0794,-1.42875 0.34396,-1.42875 0,0 0.55563,0 1.42875,0 l 0.0794,1.71979 h -1.64042 z m 1.87854,3.704169 c -0.52917,0 -0.9525,-0.423339 -0.9525,-0.952499 0,-0.52917 0.42333,-0.9525 0.9525,-0.9525 0.52917,0 0.9525,0.42333 0.9525,0.9525 0,0.52916 -0.42333,0.952499 -0.9525,0.952499 z m 0.18521,-3.704169 -0.0794,-1.71979 c 0.55563,0 1.24355,0 1.95792,0 l 0.0794,1.71979 z m 7.09083,0 -0.0794,-1.71979 c 0.68791,0 1.34937,0 1.87854,0 l 0.0794,1.71979 z m 2.43417,3.704169 c -0.52917,0 -0.9525,-0.423339 -0.9525,-0.952499 0,-0.52917 0.42333,-0.9525 0.9525,-0.9525 0.52917,0 0.9525,0.42333 0.9525,0.9525 0,0.52916 -0.42333,0.952499 -0.9525,0.952499 z m -0.15875,-3.704169 -0.0794,-1.71979 c 0.79375,0 1.29646,0 1.32292,0 0.18521,0 0.42333,0.10583 0.47625,0.23812 0.23813,0.47625 0.3175,1.48167 0.3175,1.48167 z"
       class="st1" />
  </g>
</svg>
