<?xml version="1.0" encoding="UTF-8" standalone="no"?>
<!-- Created with Inkscape (http://www.inkscape.org/) -->

<svg
   xmlns:dc="http://purl.org/dc/elements/1.1/"
   xmlns:cc="http://creativecommons.org/ns#"
   xmlns:rdf="http://www.w3.org/1999/02/22-rdf-syntax-ns#"
   xmlns:svg="http://www.w3.org/2000/svg"
   xmlns="http://www.w3.org/2000/svg"
   xmlns:sodipodi="http://sodipodi.sourceforge.net/DTD/sodipodi-0.dtd"
   xmlns:inkscape="http://www.inkscape.org/namespaces/inkscape"
   width="13.645371mm"
   height="5.52985mm"
   viewBox="0 0 13.645372 5.52985"
   version="1.1"
   id="svg2305"
   inkscape:version="0.92.3 (2405546, 2018-03-11)"
   sodipodi:docname="car-icon-4.svg">
  <defs
     id="defs2299" />
  <sodipodi:namedview
     id="base"
     pagecolor="#ffffff"
     bordercolor="#666666"
     borderopacity="1.0"
     inkscape:pageopacity="0.0"
     inkscape:pageshadow="2"
     inkscape:zoom="0.35"
     inkscape:cx="743.0381"
     inkscape:cy="-50.592537"
     inkscape:document-units="mm"
     inkscape:current-layer="layer1"
     showgrid="false"
     fit-margin-top="0"
     fit-margin-left="0"
     fit-margin-right="0"
     fit-margin-bottom="0"
     inkscape:window-width="1920"
     inkscape:window-height="1017"
     inkscape:window-x="-8"
     inkscape:window-y="-8"
     inkscape:window-maximized="1" />
  <metadata
     id="metadata2302">
    <rdf:RDF>
      <cc:Work
         rdf:about="">
        <dc:format>image/svg+xml</dc:format>
        <dc:type
           rdf:resource="http://purl.org/dc/dcmitype/StillImage" />
        <dc:title></dc:title>
      </cc:Work>
    </rdf:RDF>
  </metadata>
  <g
     inkscape:label="Layer 1"
     inkscape:groupmode="layer"
     id="layer1"
     transform="translate(213.60442,-129.91754)">
    <path
       style="fill:#ffffff;stroke-width:0.26458332"
       inkscape:connector-curvature="0"
       id="path1473"
       d="m -200.04268,133.25129 c -0.0529,-0.50271 -0.23813,-0.84667 -0.34396,-1.03188 -0.0529,-0.0794 -0.13229,-0.15875 -0.21167,-0.18521 -0.44979,-0.21166 -1.34937,-0.47625 -1.50812,-0.60854 l -0.9525,-0.74083 c -0.635,-0.50271 -0.82021,-0.76729 -2.30188,-0.76729 0,0 -6.985,0 -7.64646,0.0794 -0.60854,0.10583 -0.34395,2.38125 -0.44979,2.46062 -0.13229,0.0794 -0.21166,1.03188 -0.0794,1.08479 l -0.0529,0.39688 c -0.0265,0.15875 0.0794,0.29104 0.21167,0.29104 l 0.47625,0.0265 h 0.42333 c 0.26459,0 0.50271,0.15875 0.58209,0.39687 0.18521,0.47625 0.635,0.79375 1.13771,0.79375 0.52916,0 0.9525,-0.3175 1.1377,-0.76729 0.10584,-0.23812 0.34396,-0.39687 0.58209,-0.39687 l 4.70958,0.0265 c 0.23813,0 0.47625,0.13229 0.58208,0.37041 0.18521,0.4498 0.635,0.74084 1.13771,0.74084 0.50271,0 0.92604,-0.29104 1.13771,-0.74084 0.10583,-0.23812 0.34396,-0.37041 0.58208,-0.37041 h 0.3175 c 0.52917,0 0.58209,-0.29104 0.60855,-0.76729 0.0265,-0.10584 -0.0794,-0.29105 -0.0794,-0.29105 z m -10.71563,1.85208 c -0.47625,0 -0.84666,-0.39688 -0.84666,-0.84667 0,-0.44979 0.39687,-0.84666 0.84666,-0.84666 0.44979,0 0.84667,0.39687 0.84667,0.84666 0,0.44979 -0.37042,0.84667 -0.84667,0.84667 z m -1.77271,-3.30729 c -0.23812,0 -0.10583,-0.92604 0,-1.19063 0.1323,-0.29104 0.21167,-0.37041 0.4498,-0.37041 h 7.03791 c 0.52917,0 1.03188,0.0529 1.53459,0.58208 l 0.74083,0.79375 c 0.0529,0.0529 0.0265,0.15875 -0.0529,0.15875 h -9.71021 z m 9.94834,3.30729 c -0.47625,0 -0.84667,-0.39688 -0.84667,-0.84667 0,-0.44979 0.39688,-0.84666 0.84667,-0.84666 0.47625,0 0.84666,0.39687 0.84666,0.84666 0,0.44979 -0.37041,0.84667 -0.84666,0.84667 z"
       class="st1" />
  </g>
</svg>
