<?xml version="1.0" encoding="UTF-8" standalone="no"?>
<!-- Created with Inkscape (http://www.inkscape.org/) -->

<svg
   xmlns:dc="http://purl.org/dc/elements/1.1/"
   xmlns:cc="http://creativecommons.org/ns#"
   xmlns:rdf="http://www.w3.org/1999/02/22-rdf-syntax-ns#"
   xmlns:svg="http://www.w3.org/2000/svg"
   xmlns="http://www.w3.org/2000/svg"
   xmlns:sodipodi="http://sodipodi.sourceforge.net/DTD/sodipodi-0.dtd"
   xmlns:inkscape="http://www.inkscape.org/namespaces/inkscape"
   width="155.9279mm"
   height="89.227448mm"
   viewBox="0 0 155.9279 89.227448"
   version="1.1"
   id="svg1948"
   inkscape:version="0.92.3 (2405546, 2018-03-11)"
   sodipodi:docname="pegasus-logo-full-v.svg">
  <defs
     id="defs1942" />
  <sodipodi:namedview
     id="base"
     pagecolor="#ffffff"
     bordercolor="#666666"
     borderopacity="1.0"
     inkscape:pageopacity="0.0"
     inkscape:pageshadow="2"
     inkscape:zoom="0.49497475"
     inkscape:cx="307.11821"
     inkscape:cy="406.4745"
     inkscape:document-units="mm"
     inkscape:current-layer="layer1"
     showgrid="false"
     inkscape:window-width="1920"
     inkscape:window-height="1017"
     inkscape:window-x="1912"
     inkscape:window-y="-8"
     inkscape:window-maximized="1"
     fit-margin-top="0"
     fit-margin-left="0"
     fit-margin-right="0"
     fit-margin-bottom="0"
     inkscape:snap-global="false" />
  <metadata
     id="metadata1945">
    <rdf:RDF>
      <cc:Work
         rdf:about="">
        <dc:format>image/svg+xml</dc:format>
        <dc:type
           rdf:resource="http://purl.org/dc/dcmitype/StillImage" />
        <dc:title></dc:title>
      </cc:Work>
    </rdf:RDF>
  </metadata>
  <g
     inkscape:label="Layer 1"
     inkscape:groupmode="layer"
     id="layer1"
     transform="translate(809.51101,-141.94974)">
    <g
       id="g867"
       transform="translate(-116.49189,-17.639789)">
      <g
         transform="matrix(0.33072917,0,0,-0.33072917,-593.45878,181.70221)"
         id="g60">
        <path
           inkscape:connector-curvature="0"
           id="path62"
           style="fill:#61e3f7;fill-opacity:1;fill-rule:nonzero;stroke:none"
           d="m 0,0 c -0.069,3.188 -2.604,5.762 -5.775,5.898 -0.087,0.004 -0.435,0.004 -0.523,0 h -14.146 v 12.659 c -0.002,4.121 -3.356,7.473 -7.476,7.473 h -0.593 v -28.2 h 18.258 l -18.363,-24.246 6.385,-4.932 20.521,27 c 0.341,0.349 0.636,0.741 0.885,1.164 0.505,0.861 0.804,1.856 0.827,2.921 0.001,0.044 0.007,0.087 0.007,0.131 C 0.007,-0.087 0.001,-0.044 0,0" />
      </g>
      <g
         transform="matrix(0.33072917,0,0,-0.33072917,-623.58722,182.4199)"
         id="g64">
        <path
           inkscape:connector-curvature="0"
           id="path66"
           style="fill:#61e3f7;fill-opacity:1;fill-rule:nonzero;stroke:none"
           d="m 0,0 c -9.354,0 -17.335,-6.998 -18.562,-16.281 -0.124,-0.928 -0.181,-1.709 -0.181,-2.459 v -9.009 -11.028 -0.623 c 0,-3.369 -2.074,-6.25 -5.014,-7.445 h 5.014 0.593 c 4.122,0 7.475,3.298 7.475,7.42 V -18.74 C -10.673,-12.856 -5.884,-8.068 0,-8.068 H 0.593 V 0 Z" />
      </g>
      <g
         transform="matrix(0.33072917,0,0,-0.33072917,-618.20098,168.55282)"
         id="g68">
        <path
           inkscape:connector-curvature="0"
           id="path70"
           style="fill:#61e3f7;fill-opacity:1;fill-rule:nonzero;stroke:none"
           d="m 0,0 h -54.451 -24.205 c 0,0 0.696,-1.449 2.414,-3.117 2.338,-2.272 6.57,-4.951 13.546,-4.951 h 8.245 50.487 l 25.659,-33.224 6.208,-8.037 c 1.06,3.4 1.73,6.971 1.963,10.659 l -7.762,10.05 z" />
      </g>
      <g
         transform="matrix(0.33072917,0,0,-0.33072917,-599.94054,159.58953)"
         id="g72">
        <path
           inkscape:connector-curvature="0"
           id="path74"
           style="fill:#61e3f7;fill-opacity:1;fill-rule:nonzero;stroke:none"
           d="m 0,0 -0.433,-0.21 c -2.45,-1.18 -4.032,-3.507 -4.226,-6.16 l -0.003,-0.139 -0.435,-0.098 c -12.741,-2.747 -23.049,-12.346 -26.699,-24.838 l -17.38,22.495 h -74.544 -24.204 c 0,0 0.696,-1.448 2.413,-3.117 2.338,-2.271 6.57,-4.951 13.547,-4.951 h 8.244 70.582 l 20.029,-25.92 7.857,-10.169 0.103,-0.134 v 11.818 c 0,14.491 11.267,26.495 25.706,27.464 l 19.099,-24.829 6.385,4.933 z" />
      </g>
      <g
         transform="matrix(0.33072917,0,0,-0.33072917,-613.5689,191.8384)"
         id="g76">
        <path
           inkscape:connector-curvature="0"
           id="path78"
           style="fill:#61e3f7;fill-opacity:1;fill-rule:nonzero;stroke:none"
           d="m 0,0 c 1.891,1.623 3.647,3.398 5.25,5.306 1.814,2.157 3.431,4.482 4.826,6.95 L 4.758,19.139 -20.828,52.253 H -54.4 -78.605 c 0,0 0.697,-1.449 2.415,-3.118 2.338,-2.271 6.57,-4.95 13.545,-4.95 h 8.245 29.609 L 0.309,11.701 C -6.219,3.183 -16.281,-2.49 -27.669,-3.095 c -0.02,0.005 -1.067,0.004 -1.067,0.004 l -0.96,0.01 v -7.927 c 0.011,0 0.022,0 0.033,0 v -0.134 L -4.389,-43.786 H 5.814 l -26.171,33.74 c 1.461,0.305 2.897,0.68 4.303,1.121 C -10.084,-7.052 -4.639,-3.982 0,0" />
      </g>
    </g>
    <g
       id="g901"
       transform="matrix(0.86635193,0,0,0.86635193,-312.05973,62.330909)"
       style="fill:#ffffff;fill-opacity:1">
      <g
         style="fill:#ffffff;fill-opacity:1;stroke:none;stroke-opacity:1"
         transform="matrix(0.85061557,0,0,-0.85061557,-554.80609,172.66905)"
         id="g32">
        <path
           inkscape:connector-curvature="0"
           id="path34"
           style="fill:#ffffff;fill-opacity:1;fill-rule:nonzero;stroke:none;stroke-opacity:1"
           d="m 0,0 c 0,-6.58 -5.225,-10.838 -13.644,-10.838 -1.5,0 -3.144,0.145 -4.21,0.29 v -14.999 h -4.935 V 9.676 h 9.145 C -4.596,9.676 0,6.193 0,0 m -5.225,-0.581 c 0,5.564 -2.807,9.483 -9.144,9.483 h -3.485 V -9.725 c 0.872,-0.194 1.985,-0.339 3.388,-0.339 6.145,0 9.241,3.58 9.241,9.483" />
      </g>
      <g
         style="fill:#ffffff;fill-opacity:1;stroke:none;stroke-opacity:1"
         transform="matrix(0.85061557,0,0,-0.85061557,-529.74143,191.64169)"
         id="g36">
        <path
           inkscape:connector-curvature="0"
           id="path38"
           style="fill:#ffffff;fill-opacity:1;fill-rule:nonzero;stroke:none;stroke-opacity:1"
           d="M 0,0 -0.919,-3.242 H -21.773 V 31.981 H -1.5 l 0.581,-3.048 h -0.097 c -4.451,1.499 -8.951,2.177 -13.16,2.177 h -2.662 V 15.53 h 2.227 c 5.225,0 8.66,0.339 10.16,0.968 h 0.096 v -2.999 h -0.096 c -1.5,0.629 -4.935,1.161 -10.16,1.161 h -2.227 V -2.371 h 2.807 c 4.161,0 9.29,0.629 13.934,2.371 z" />
      </g>
      <g
         style="fill:#ffffff;fill-opacity:1;stroke:none;stroke-opacity:1"
         transform="matrix(0.85061557,0,0,-0.85061557,-498.46201,180.81827)"
         id="g40">
        <path
           inkscape:connector-curvature="0"
           id="path42"
           style="fill:#ffffff;fill-opacity:1;fill-rule:nonzero;stroke:none;stroke-opacity:1"
           d="m 0,0 v -12.144 c -3.097,-2.274 -7.499,-4.403 -13.741,-4.403 -11.273,0 -18.821,6.628 -18.821,17.95 0,11.225 7.984,18.434 18.531,18.434 5.661,0 10.402,-2.419 13.257,-5.66 l -2.419,-2.178 c -2.42,4.065 -6.241,7.064 -11.273,7.064 -7.742,0 -12.677,-6.822 -12.677,-17.321 0,-10.257 5.42,-17.418 13.644,-17.418 3.532,0 6.822,1.21 8.951,2.903 v 11.902 h -8.08 L -13.16,0 Z" />
      </g>
      <g
         style="fill:#ffffff;fill-opacity:1;stroke:none;stroke-opacity:1"
         transform="matrix(0.85061557,0,0,-0.85061557,-478.86995,184.56304)"
         id="g44">
        <path
           inkscape:connector-curvature="0"
           id="path46"
           style="fill:#ffffff;fill-opacity:1;fill-rule:nonzero;stroke:none;stroke-opacity:1"
           d="m 0,0 h -13.741 c -2.128,-5.661 -2.709,-8.709 -2.855,-11.564 h -3.338 c 2.323,4.838 4.162,9.338 6.678,15.434 l 8.418,20.563 h 0.194 L 10.015,-11.564 H 4.645 Z M -0.339,0.871 -6.87,17.031 -12.337,3.532 -13.402,0.871 Z" />
      </g>
      <g
         style="fill:#ffffff;fill-opacity:1;stroke:none;stroke-opacity:1"
         transform="matrix(0.85061557,0,0,-0.85061557,-468.12652,192.71174)"
         id="g48">
        <path
           inkscape:connector-curvature="0"
           id="path50"
           style="fill:#ffffff;fill-opacity:1;fill-rule:nonzero;stroke:none;stroke-opacity:1"
           d="m 0,0 0.871,3.048 c 2.322,-2.855 6.919,-4.839 10.838,-4.839 4.693,0 7.886,2.904 7.886,6.871 0,4.645 -4.161,6.725 -7.742,8.37 l -2.419,1.065 c -3.821,1.741 -8.901,4.257 -8.901,10.015 0,5.322 4.402,9.289 11.128,9.289 3.966,0 7.885,-1.403 9.87,-2.564 l -0.775,-2.71 c -2.129,2.226 -5.612,4.5 -9.628,4.5 -4.499,0 -7.064,-2.806 -7.064,-6.193 0,-4.161 3.677,-5.999 7.548,-7.789 l 2.419,-1.113 c 4.354,-2.032 9.047,-4.354 9.047,-10.354 0,-6.048 -4.982,-10.16 -11.805,-10.16 C 7.064,-2.564 2.177,-1.113 0,0" />
      </g>
      <g
         style="fill:#ffffff;fill-opacity:1;stroke:none;stroke-opacity:1"
         transform="matrix(0.85061557,0,0,-0.85061557,-442.07325,184.11039)"
         id="g52">
        <path
           inkscape:connector-curvature="0"
           id="path54"
           style="fill:#ffffff;fill-opacity:1;fill-rule:nonzero;stroke:none;stroke-opacity:1"
           d="M 0,0 V 23.127 H 4.935 V 0.097 c 0,-7.548 3.386,-11.322 9.628,-11.322 5.999,0 9.676,3.629 9.676,11.08 v 7.886 c 0,6.774 -0.289,11.516 -0.967,15.386 h 2.903 C 25.547,19.257 25.208,14.515 25.208,7.741 V 0.097 c 0,-8.225 -3.92,-12.773 -12.435,-12.773 C 4.258,-12.676 0,-8.128 0,0" />
      </g>
      <g
         style="fill:#ffffff;fill-opacity:1;stroke:none;stroke-opacity:1"
         transform="matrix(0.85061557,0,0,-0.85061557,-413.83911,192.71174)"
         id="g56">
        <path
           inkscape:connector-curvature="0"
           id="path58"
           style="fill:#ffffff;fill-opacity:1;fill-rule:nonzero;stroke:none;stroke-opacity:1"
           d="m 0,0 0.871,3.048 c 2.322,-2.855 6.919,-4.839 10.838,-4.839 4.693,0 7.886,2.904 7.886,6.871 0,4.645 -4.16,6.725 -7.742,8.37 l -2.419,1.065 c -3.822,1.741 -8.901,4.257 -8.901,10.015 0,5.322 4.402,9.289 11.128,9.289 3.966,0 7.885,-1.403 9.87,-2.564 l -0.775,-2.71 c -2.129,2.226 -5.612,4.5 -9.628,4.5 -4.499,0 -7.064,-2.806 -7.064,-6.193 0,-4.161 3.677,-5.999 7.548,-7.789 l 2.419,-1.113 c 4.354,-2.032 9.047,-4.354 9.047,-10.354 0,-6.048 -4.983,-10.16 -11.805,-10.16 C 7.064,-2.564 2.177,-1.113 0,0" />
      </g>
    </g>
  </g>
</svg>
